<?xml version="1.0" encoding="utf-8" ?>
<svg xmlns="http://www.w3.org/2000/svg" xmlns:xlink="http://www.w3.org/1999/xlink" width="1024" height="1024">
	<path fill="#254441" transform="scale(2 2)" d="M0 0L0 512L512 512L512 0L0 0Z"/>
	<path fill="#FF6F59" transform="scale(2 2)" d="M259.828 434.331L76.351 434.341L76.3465 255.175C76.3627 232.682 80.488 209.881 89.3096 189.14C116.982 124.077 179.892 75.6952 252.054 75.2857L269.595 75.8751C311.128 78.7734 348.787 95.7919 378.716 125.085C408.577 154.314 430.085 192.754 434.517 234.719C435.728 246.18 435.501 257.676 435.503 269.182L435.566 434.05C434.824 434.618 275.885 434.344 259.828 434.331ZM207.87 138.225C186.3 139.436 163.383 147.208 146.301 160.336C137.29 167.262 122.003 182.084 121.65 193.872L121.575 229.445C121.577 232.086 120.897 236.141 121.937 238.593L122.007 238.771C123.763 242.95 127.831 243.097 131.597 243.096L183.8 243.156C183.349 276.418 172.269 310.834 158.77 340.855L149.472 360.81C146.55 366.826 140.634 373.672 150.044 378.478L200.947 402.778C209.776 407.087 216.195 412.97 222.557 402.15L256.257 345.831L280.784 387.533L288.761 401.343C294.659 411.946 299.296 408.356 308.784 403.704L348.681 384.6C353.971 382.099 369.929 377.465 366.921 369.001C365.592 365.26 363.402 361.675 361.572 358.148L354.313 343.216C341.015 313.411 328.398 276.232 327.924 243.041L379.234 243.064C388.033 243.059 390.333 241.749 390.356 231.621L390.354 192.903C390.298 186.138 385.017 179.737 380.852 174.875C361.983 152.851 335.139 140.186 306.232 138.471C300.958 138.158 299.43 140.69 295.343 143.65C269.352 162.475 240.674 159.913 215.327 142.398C213.371 141.047 210.404 138.029 207.87 138.225Z"/>
	<path fill="#FF6F59" transform="scale(2 2)" d="M271.039 228.232L261.899 247.761C256.164 259.336 256.282 260.108 250.684 248.414L239.469 222.001L224.998 181.916L220.796 167.098L226.041 169.197C247.652 177.516 271.188 177.021 292.484 167.578C288.605 187.157 279.09 210.208 271.039 228.232Z"/>
	<path fill="#FF6F59" transform="scale(2 2)" d="M257.876 289.074C247.38 290.296 245.433 276.963 254.321 273.662C264.559 272.772 267.28 286.088 257.876 289.074Z"/>
	<path fill="#FF6F59" transform="scale(2 2)" d="M256.306 324.378C245.755 323.529 246.451 310.501 255.788 308.981C265.696 309.534 266.504 323.125 256.306 324.378Z"/>
</svg>
