<?xml version="1.0" encoding="utf-8" ?>
<svg xmlns="http://www.w3.org/2000/svg" xmlns:xlink="http://www.w3.org/1999/xlink" width="1024" height="1024">
	<path fill="#254441" transform="scale(2 2)" d="M0 0L0 512L512 512L512 0L0 0Z"/>
	<path fill="#FF6F59" transform="scale(2 2)" d="M65.2343 121.497L6.0779 121.501L6.07645 63.734C6.08167 56.4817 7.41175 49.1305 10.256 42.443C19.178 21.4655 39.4615 5.86645 62.7278 5.73443L68.3833 5.92448C81.7742 6.85892 93.9163 12.346 103.566 21.7907C113.194 31.2145 120.128 43.6082 121.557 57.1388C121.948 60.834 121.874 64.5403 121.875 68.25L121.895 121.406C121.656 121.59 70.4112 121.501 65.2343 121.497ZM48.482 26.0272C41.5275 26.4175 34.1388 28.9235 28.631 33.1562C25.7258 35.3892 20.7969 40.168 20.6831 43.9688L20.6589 55.4382C20.6595 56.2897 20.4405 57.597 20.7757 58.3877L20.7981 58.445C21.3644 59.7925 22.6761 59.8398 23.8903 59.8395L40.7212 59.859C40.576 70.5833 37.0035 81.6795 32.6512 91.3588L29.6535 97.7927C28.7112 99.7322 26.8038 101.939 29.838 103.489L46.25 111.324C49.0965 112.713 51.166 114.61 53.2172 111.121L64.0828 92.963L71.9908 106.409L74.5627 110.861C76.4645 114.28 77.9595 113.122 81.0185 111.623L93.882 105.463C95.5875 104.656 100.733 103.162 99.763 100.433C99.3345 99.2272 98.6285 98.0715 98.0383 96.9345L95.6977 92.12C91.4105 82.5102 87.3425 70.5233 87.1895 59.8218L103.733 59.8293C106.57 59.8275 107.311 59.4053 107.319 56.1397L107.318 43.6562C107.3 41.4753 105.597 39.4115 104.254 37.8438C98.1707 30.743 89.516 26.6595 80.1958 26.1065C78.4952 26.0055 78.0025 26.822 76.685 27.7763C68.305 33.8458 59.0588 33.0198 50.8862 27.3727C50.2555 26.937 49.299 25.964 48.482 26.0272Z"/>
	<path fill="#FF6F59" transform="scale(2 2)" d="M68.8487 55.047L65.902 61.3435C64.0528 65.0755 64.091 65.3245 62.286 61.5543L58.6703 53.0382L54.0045 40.114L52.6497 35.3365L54.3407 36.013C61.3085 38.6953 68.8967 38.5358 75.7632 35.4913C74.5125 41.8038 71.4445 49.2358 68.8487 55.047Z"/>
	<path fill="#FF6F59" transform="scale(2 2)" d="M64.605 74.6635C61.2208 75.0577 60.593 70.7588 63.4585 69.6945C66.7595 69.4077 67.6368 73.701 64.605 74.6635Z"/>
	<path fill="#FF6F59" transform="scale(2 2)" d="M64.0985 86.0463C60.6968 85.7725 60.9213 81.572 63.9315 81.082C67.1262 81.2602 67.3868 85.6423 64.0985 86.0463Z"/>
	<path fill="#FF6F59" transform="scale(2 2)" d="M190.766 6.50275L249.922 6.4995L249.924 64.266C249.918 71.5182 248.588 78.8695 245.744 85.557C236.822 106.534 216.538 122.134 193.272 122.266L187.617 122.076C174.226 121.141 162.084 115.654 152.434 106.209C142.806 96.7855 135.872 84.3918 134.443 70.8612C134.053 67.166 134.125 63.4597 134.125 59.75L134.105 6.5935C134.344 6.41025 185.589 6.49875 190.766 6.50275ZM207.518 101.973C214.472 101.582 221.861 99.0765 227.369 94.8438C230.274 92.6107 235.203 87.832 235.317 84.0312L235.341 72.5618C235.34 71.7103 235.559 70.403 235.224 69.6123L235.202 69.555C234.636 68.2075 233.324 68.1602 232.11 68.1605L215.279 68.141C215.424 57.4167 218.996 46.3205 223.349 36.6412L226.346 30.2073C227.289 28.2678 229.196 26.0605 226.162 24.511L209.75 16.676C206.904 15.2867 204.834 13.39 202.783 16.8787L191.917 35.037L184.009 21.5915L181.437 17.1388C179.536 13.7202 178.041 14.8778 174.981 16.3775L162.118 22.537C160.412 23.3435 155.267 24.8375 156.237 27.5665C156.666 28.7728 157.371 29.9285 157.962 31.0655L160.302 35.88C164.589 45.4898 168.657 57.4767 168.81 68.1782L152.267 68.1707C149.43 68.1725 148.689 68.5948 148.681 71.8603L148.682 84.3438C148.7 86.5247 150.403 88.5885 151.745 90.1562C157.829 97.257 166.484 101.34 175.804 101.894C177.505 101.995 177.998 101.178 179.315 100.224C187.695 94.1542 196.941 94.9802 205.114 100.627C205.745 101.063 206.701 102.036 207.518 101.973Z"/>
	<path fill="#FF6F59" transform="scale(2 2)" d="M187.151 72.953L190.098 66.6565C191.947 62.9245 191.909 62.6755 193.714 66.4458L197.33 74.9617L201.995 87.886L203.35 92.6635L201.659 91.987C194.692 89.3047 187.103 89.4642 180.237 92.5087C181.488 86.1962 184.555 78.7643 187.151 72.953Z"/>
	<path fill="#FF6F59" transform="scale(2 2)" d="M191.395 53.3365C194.779 52.9423 195.407 57.2412 192.541 58.3055C189.24 58.5923 188.363 54.299 191.395 53.3365Z"/>
	<path fill="#FF6F59" transform="scale(2 2)" d="M191.901 41.9537C195.303 42.2275 195.079 46.428 192.069 46.918C188.874 46.7398 188.613 42.3577 191.901 41.9537Z"/>
	<path fill="#FF6F59" transform="scale(2 2)" d="M321.234 121.497L262.078 121.501L262.076 63.734C262.082 56.4817 263.412 49.1305 266.256 42.443C275.178 21.4655 295.462 5.86645 318.728 5.73443L324.383 5.92448C337.774 6.85892 349.916 12.346 359.566 21.7907C369.194 31.2145 376.128 43.6082 377.557 57.1388C377.948 60.834 377.874 64.5403 377.875 68.25L377.895 121.406C377.656 121.59 326.411 121.501 321.234 121.497ZM304.482 26.0272C297.528 26.4175 290.139 28.9235 284.631 33.1562C281.726 35.3892 276.797 40.168 276.683 43.9688L276.659 55.4382C276.659 56.2897 276.44 57.597 276.776 58.3877L276.798 58.445C277.364 59.7925 278.676 59.8398 279.89 59.8395L296.721 59.859C296.576 70.5833 293.004 81.6795 288.651 91.3588L285.654 97.7927C284.711 99.7322 282.804 101.939 285.838 103.489L302.25 111.324C305.096 112.713 307.166 114.61 309.217 111.121L320.083 92.963L327.991 106.409L330.563 110.861C332.464 114.28 333.959 113.122 337.019 111.623L349.882 105.463C351.587 104.656 356.733 103.162 355.763 100.433C355.334 99.2272 354.629 98.0715 354.038 96.9345L351.698 92.12C347.411 82.5102 343.342 70.5233 343.19 59.8218L359.733 59.8293C362.57 59.8275 363.311 59.4053 363.319 56.1397L363.318 43.6562C363.3 41.4753 361.597 39.4115 360.254 37.8438C354.171 30.743 345.516 26.6595 336.196 26.1065C334.495 26.0055 334.002 26.822 332.685 27.7763C324.305 33.8458 315.059 33.0198 306.886 27.3727C306.255 26.937 305.299 25.964 304.482 26.0272Z"/>
	<path fill="#FF6F59" transform="scale(2 2)" d="M324.849 55.047L321.902 61.3435C320.053 65.0755 320.091 65.3245 318.286 61.5543L314.67 53.0382L310.005 40.114L308.65 35.3365L310.341 36.013C317.308 38.6953 324.897 38.5358 331.763 35.4913C330.512 41.8038 327.445 49.2358 324.849 55.047Z"/>
	<path fill="#FF6F59" transform="scale(2 2)" d="M320.605 74.6635C317.221 75.0577 316.593 70.7588 319.459 69.6945C322.76 69.4077 323.637 73.701 320.605 74.6635Z"/>
	<path fill="#FF6F59" transform="scale(2 2)" d="M320.099 86.0463C316.697 85.7725 316.921 81.572 319.932 81.082C323.126 81.2602 323.387 85.6423 320.099 86.0463Z"/>
	<path fill="#FF6F59" transform="scale(2 2)" d="M446.766 6.50275L505.922 6.4995L505.924 64.266C505.918 71.5182 504.588 78.8695 501.744 85.557C492.822 106.534 472.538 122.134 449.272 122.266L443.617 122.076C430.226 121.141 418.084 115.654 408.434 106.209C398.807 96.7855 391.872 84.3918 390.443 70.8612C390.053 67.166 390.125 63.4597 390.125 59.75L390.105 6.5935C390.344 6.41025 441.589 6.49875 446.766 6.50275ZM463.518 101.973C470.472 101.582 477.861 99.0765 483.369 94.8438C486.274 92.6107 491.203 87.832 491.317 84.0312L491.341 72.5618C491.34 71.7103 491.559 70.403 491.224 69.6123L491.202 69.555C490.636 68.2075 489.324 68.1602 488.11 68.1605L471.279 68.141C471.424 57.4167 474.996 46.3205 479.349 36.6412L482.346 30.2073C483.289 28.2678 485.196 26.0605 482.162 24.511L465.75 16.676C462.904 15.2867 460.834 13.39 458.783 16.8787L447.917 35.037L440.009 21.5915L437.437 17.1388C435.536 13.7202 434.041 14.8778 430.981 16.3775L418.118 22.537C416.413 23.3435 411.267 24.8375 412.237 27.5665C412.666 28.7728 413.372 29.9285 413.962 31.0655L416.302 35.88C420.589 45.4898 424.658 57.4767 424.81 68.1782L408.267 68.1707C405.43 68.1725 404.689 68.5948 404.681 71.8603L404.682 84.3438C404.7 86.5247 406.402 88.5885 407.745 90.1562C413.829 97.257 422.484 101.34 431.804 101.894C433.505 101.995 433.998 101.178 435.315 100.224C443.695 94.1542 452.941 94.9802 461.114 100.627C461.745 101.063 462.701 102.036 463.518 101.973Z"/>
	<path fill="#FF6F59" transform="scale(2 2)" d="M443.151 72.953L446.098 66.6565C447.947 62.9245 447.909 62.6755 449.714 66.4458L453.33 74.9617L457.995 87.886L459.35 92.6635L457.659 91.987C450.692 89.3047 443.103 89.4642 436.237 92.5087C437.488 86.1962 440.555 78.7643 443.151 72.953Z"/>
	<path fill="#FF6F59" transform="scale(2 2)" d="M447.395 53.3365C450.779 52.9423 451.407 57.2412 448.541 58.3055C445.24 58.5923 444.363 54.299 447.395 53.3365Z"/>
	<path fill="#FF6F59" transform="scale(2 2)" d="M447.901 41.9537C451.303 42.2275 451.079 46.428 448.068 46.918C444.874 46.7398 444.613 42.3577 447.901 41.9537Z"/>
	<path fill="#FF6F59" transform="scale(2 2)" d="M-1.2343 134.503L57.922 134.5L57.924 192.266C57.918 199.518 56.588 206.87 53.744 213.557C44.822 234.534 24.5385 250.134 1.2722 250.266L-4.3833 250.076C-17.7742 249.141 -29.9163 243.654 -39.5657 234.209C-49.1935 224.786 -56.1283 212.392 -57.5572 198.861C-57.9475 195.166 -57.8745 191.46 -57.875 187.75L-57.8952 134.594C-57.656 134.41 -6.4112 134.499 -1.2343 134.503ZM15.518 229.973C22.4725 229.582 29.8612 227.077 35.369 222.844C38.274 220.611 43.203 215.832 43.317 212.031L43.341 200.562C43.34 199.71 43.559 198.403 43.224 197.612L43.202 197.555C42.636 196.207 41.324 196.16 40.11 196.161L23.2788 196.141C23.424 185.417 26.9965 174.321 31.3487 164.641L34.3465 158.207C35.2887 156.268 37.196 154.06 34.162 152.511L17.75 144.676C14.9035 143.287 12.834 141.39 10.7827 144.879L-0.0828 163.037L-7.9908 149.591L-10.5627 145.139C-12.4645 141.72 -13.9595 142.878 -17.0185 144.377L-29.882 150.537C-31.5875 151.344 -36.7327 152.838 -35.763 155.566C-35.3345 156.773 -34.6285 157.928 -34.0383 159.065L-31.6977 163.88C-27.4105 173.49 -23.3425 185.477 -23.1895 196.178L-39.7327 196.171C-42.5697 196.173 -43.3113 196.595 -43.3187 199.86L-43.3183 212.344C-43.3 214.525 -41.5975 216.589 -40.2545 218.156C-34.1707 225.257 -25.516 229.34 -16.1958 229.894C-14.4952 229.995 -14.0025 229.178 -12.685 228.224C-4.305 222.154 4.9412 222.98 13.1138 228.627C13.7445 229.063 14.701 230.036 15.518 229.973Z"/>
	<path fill="#FF6F59" transform="scale(2 2)" d="M-4.8487 200.953L-1.902 194.656C-0.0528 190.924 -0.091 190.675 1.714 194.446L5.3297 202.962L9.9955 215.886L11.3503 220.663L9.6593 219.987C2.6915 217.305 -4.8967 217.464 -11.7632 220.509C-10.5125 214.196 -7.4445 206.764 -4.8487 200.953Z"/>
	<path fill="#FF6F59" transform="scale(2 2)" d="M-0.605 181.337C2.7792 180.942 3.407 185.241 0.5415 186.305C-2.7595 186.592 -3.6368 182.299 -0.605 181.337Z"/>
	<path fill="#FF6F59" transform="scale(2 2)" d="M-0.0985 169.954C3.3032 170.227 3.0787 174.428 0.0685 174.918C-3.1262 174.74 -3.3868 170.358 -0.0985 169.954Z"/>
	<path fill="#FF6F59" transform="scale(2 2)" d="M129.234 249.497L70.0779 249.501L70.0764 191.734C70.0817 184.482 71.4117 177.13 74.256 170.443C83.178 149.465 103.462 133.866 126.728 133.734L132.383 133.924C145.774 134.859 157.916 140.346 167.566 149.791C177.194 159.214 184.128 171.608 185.557 185.139C185.948 188.834 185.874 192.54 185.875 196.25L185.895 249.406C185.656 249.59 134.411 249.501 129.234 249.497ZM112.482 154.027C105.528 154.417 98.1388 156.923 92.631 161.156C89.7258 163.389 84.7969 168.168 84.6831 171.969L84.6589 183.438C84.6595 184.29 84.4405 185.597 84.7757 186.388L84.7981 186.445C85.3644 187.792 86.6761 187.84 87.8903 187.839L104.721 187.859C104.576 198.583 101.004 209.68 96.6512 219.359L93.6535 225.793C92.7112 227.732 90.8038 229.939 93.838 231.489L110.25 239.324C113.096 240.713 115.166 242.61 117.217 239.121L128.083 220.963L135.991 234.409L138.563 238.861C140.464 242.28 141.959 241.122 145.019 239.623L157.882 233.463C159.588 232.656 164.733 231.162 163.763 228.433C163.334 227.227 162.629 226.072 162.038 224.935L159.698 220.12C155.411 210.51 151.343 198.523 151.19 187.822L167.733 187.829C170.57 187.827 171.311 187.405 171.319 184.14L171.318 171.656C171.3 169.475 169.597 167.411 168.254 165.844C162.171 158.743 153.516 154.66 144.196 154.107C142.495 154.006 142.002 154.822 140.685 155.776C132.305 161.846 123.059 161.02 114.886 155.373C114.255 154.937 113.299 153.964 112.482 154.027Z"/>
	<path fill="#FF6F59" transform="scale(2 2)" d="M132.849 183.047L129.902 189.344C128.053 193.076 128.091 193.325 126.286 189.554L122.67 181.038L118.005 168.114L116.65 163.337L118.341 164.013C125.309 166.695 132.897 166.536 139.763 163.491C138.512 169.804 135.445 177.236 132.849 183.047Z"/>
	<path fill="#FF6F59" transform="scale(2 2)" d="M128.605 202.663C125.221 203.058 124.593 198.759 127.459 197.695C130.76 197.408 131.637 201.701 128.605 202.663Z"/>
	<path fill="#FF6F59" transform="scale(2 2)" d="M128.099 214.046C124.697 213.772 124.921 209.572 127.931 209.082C131.126 209.26 131.387 213.642 128.099 214.046Z"/>
	<path fill="#FF6F59" transform="scale(2 2)" d="M254.766 134.503L313.922 134.5L313.924 192.266C313.918 199.518 312.588 206.87 309.744 213.557C300.822 234.534 280.538 250.134 257.272 250.266L251.617 250.076C238.226 249.141 226.084 243.654 216.434 234.209C206.806 224.786 199.872 212.392 198.443 198.861C198.053 195.166 198.125 191.46 198.125 187.75L198.105 134.594C198.344 134.41 249.589 134.499 254.766 134.503ZM271.518 229.973C278.472 229.582 285.861 227.077 291.369 222.844C294.274 220.611 299.203 215.832 299.317 212.031L299.341 200.562C299.34 199.71 299.559 198.403 299.224 197.612L299.202 197.555C298.636 196.207 297.324 196.16 296.11 196.161L279.279 196.141C279.424 185.417 282.996 174.321 287.349 164.641L290.346 158.207C291.289 156.268 293.196 154.06 290.162 152.511L273.75 144.676C270.904 143.287 268.834 141.39 266.783 144.879L255.917 163.037L248.009 149.591L245.437 145.139C243.536 141.72 242.041 142.878 238.981 144.377L226.118 150.537C224.412 151.344 219.267 152.838 220.237 155.566C220.666 156.773 221.371 157.928 221.962 159.065L224.302 163.88C228.589 173.49 232.657 185.477 232.81 196.178L216.267 196.171C213.43 196.173 212.689 196.595 212.681 199.86L212.682 212.344C212.7 214.525 214.403 216.589 215.745 218.156C221.829 225.257 230.484 229.34 239.804 229.894C241.505 229.995 241.998 229.178 243.315 228.224C251.695 222.154 260.941 222.98 269.114 228.627C269.745 229.063 270.701 230.036 271.518 229.973Z"/>
	<path fill="#FF6F59" transform="scale(2 2)" d="M251.151 200.953L254.098 194.656C255.947 190.924 255.909 190.675 257.714 194.446L261.33 202.962L265.995 215.886L267.35 220.663L265.659 219.987C258.692 217.305 251.103 217.464 244.237 220.509C245.488 214.196 248.555 206.764 251.151 200.953Z"/>
	<path fill="#FF6F59" transform="scale(2 2)" d="M255.395 181.337C258.779 180.942 259.407 185.241 256.541 186.305C253.24 186.592 252.363 182.299 255.395 181.337Z"/>
	<path fill="#FF6F59" transform="scale(2 2)" d="M255.901 169.954C259.303 170.227 259.079 174.428 256.068 174.918C252.874 174.74 252.613 170.358 255.901 169.954Z"/>
	<path fill="#FF6F59" transform="scale(2 2)" d="M385.234 249.497L326.078 249.501L326.076 191.734C326.082 184.482 327.412 177.13 330.256 170.443C339.178 149.465 359.462 133.866 382.728 133.734L388.383 133.924C401.774 134.859 413.916 140.346 423.566 149.791C433.194 159.214 440.128 171.608 441.557 185.139C441.948 188.834 441.874 192.54 441.875 196.25L441.895 249.406C441.656 249.59 390.411 249.501 385.234 249.497ZM368.482 154.027C361.528 154.417 354.139 156.923 348.631 161.156C345.726 163.389 340.797 168.168 340.683 171.969L340.659 183.438C340.659 184.29 340.44 185.597 340.776 186.388L340.798 186.445C341.364 187.792 342.676 187.84 343.89 187.839L360.721 187.859C360.576 198.583 357.004 209.68 352.651 219.359L349.654 225.793C348.711 227.732 346.804 229.939 349.838 231.489L366.25 239.324C369.096 240.713 371.166 242.61 373.217 239.121L384.083 220.963L391.991 234.409L394.563 238.861C396.464 242.28 397.959 241.122 401.019 239.623L413.882 233.463C415.587 232.656 420.733 231.162 419.763 228.433C419.334 227.227 418.629 226.072 418.038 224.935L415.698 220.12C411.411 210.51 407.342 198.523 407.19 187.822L423.733 187.829C426.57 187.827 427.311 187.405 427.319 184.14L427.318 171.656C427.3 169.475 425.597 167.411 424.254 165.844C418.171 158.743 409.516 154.66 400.196 154.107C398.495 154.006 398.002 154.822 396.685 155.776C388.305 161.846 379.059 161.02 370.886 155.373C370.255 154.937 369.299 153.964 368.482 154.027Z"/>
	<path fill="#FF6F59" transform="scale(2 2)" d="M388.849 183.047L385.902 189.344C384.053 193.076 384.091 193.325 382.286 189.554L378.67 181.038L374.005 168.114L372.65 163.337L374.341 164.013C381.308 166.695 388.897 166.536 395.763 163.491C394.512 169.804 391.445 177.236 388.849 183.047Z"/>
	<path fill="#FF6F59" transform="scale(2 2)" d="M384.605 202.663C381.221 203.058 380.593 198.759 383.459 197.695C386.76 197.408 387.637 201.701 384.605 202.663Z"/>
	<path fill="#FF6F59" transform="scale(2 2)" d="M384.099 214.046C380.697 213.772 380.921 209.572 383.932 209.082C387.126 209.26 387.387 213.642 384.099 214.046Z"/>
	<path fill="#FF6F59" transform="scale(2 2)" d="M510.766 134.503L569.922 134.5L569.924 192.266C569.918 199.518 568.588 206.87 565.744 213.557C556.822 234.534 536.538 250.134 513.272 250.266L507.617 250.076C494.226 249.141 482.084 243.654 472.434 234.209C462.807 224.786 455.872 212.392 454.443 198.861C454.053 195.166 454.125 191.46 454.125 187.75L454.105 134.594C454.344 134.41 505.589 134.499 510.766 134.503ZM527.518 229.973C534.472 229.582 541.861 227.077 547.369 222.844C550.274 220.611 555.203 215.832 555.317 212.031L555.341 200.562C555.34 199.71 555.559 198.403 555.224 197.612L555.202 197.555C554.636 196.207 553.324 196.16 552.11 196.161L535.279 196.141C535.424 185.417 538.996 174.321 543.349 164.641L546.346 158.207C547.289 156.268 549.196 154.06 546.162 152.511L529.75 144.676C526.904 143.287 524.834 141.39 522.783 144.879L511.917 163.037L504.009 149.591L501.437 145.139C499.536 141.72 498.041 142.878 494.981 144.377L482.118 150.537C480.413 151.344 475.267 152.838 476.237 155.566C476.666 156.773 477.372 157.928 477.962 159.065L480.302 163.88C484.589 173.49 488.658 185.477 488.81 196.178L472.267 196.171C469.43 196.173 468.689 196.595 468.681 199.86L468.682 212.344C468.7 214.525 470.402 216.589 471.745 218.156C477.829 225.257 486.484 229.34 495.804 229.894C497.505 229.995 497.998 229.178 499.315 228.224C507.695 222.154 516.941 222.98 525.114 228.627C525.745 229.063 526.701 230.036 527.518 229.973Z"/>
	<path fill="#FF6F59" transform="scale(2 2)" d="M507.151 200.953L510.098 194.656C511.947 190.924 511.909 190.675 513.714 194.446L517.33 202.962L521.995 215.886L523.35 220.663L521.659 219.987C514.692 217.305 507.103 217.464 500.237 220.509C501.488 214.196 504.555 206.764 507.151 200.953Z"/>
	<path fill="#FF6F59" transform="scale(2 2)" d="M511.395 181.337C514.779 180.942 515.407 185.241 512.542 186.305C509.24 186.592 508.363 182.299 511.395 181.337Z"/>
	<path fill="#FF6F59" transform="scale(2 2)" d="M511.901 169.954C515.303 170.227 515.079 174.428 512.068 174.918C508.874 174.74 508.613 170.358 511.901 169.954Z"/>
	<path fill="#FF6F59" transform="scale(2 2)" d="M65.2343 377.497L6.0779 377.501L6.07645 319.734C6.08167 312.482 7.41175 305.13 10.256 298.443C19.178 277.466 39.4615 261.866 62.7278 261.734L68.3833 261.924C81.7742 262.859 93.9163 268.346 103.566 277.791C113.194 287.214 120.128 299.608 121.557 313.139C121.948 316.834 121.874 320.54 121.875 324.25L121.895 377.406C121.656 377.59 70.4112 377.501 65.2343 377.497ZM48.482 282.027C41.5275 282.418 34.1388 284.923 28.631 289.156C25.7258 291.389 20.7969 296.168 20.6831 299.969L20.6589 311.438C20.6595 312.29 20.4405 313.597 20.7757 314.388L20.7981 314.445C21.3644 315.793 22.6761 315.84 23.8903 315.839L40.7212 315.859C40.576 326.583 37.0035 337.68 32.6512 347.359L29.6535 353.793C28.7112 355.732 26.8038 357.939 29.838 359.489L46.25 367.324C49.0965 368.713 51.166 370.61 53.2172 367.121L64.0828 348.963L71.9908 362.409L74.5627 366.861C76.4645 370.28 77.9595 369.122 81.0185 367.623L93.882 361.463C95.5875 360.656 100.733 359.162 99.763 356.433C99.3345 355.227 98.6285 354.072 98.0383 352.935L95.6977 348.12C91.4105 338.51 87.3425 326.523 87.1895 315.822L103.733 315.829C106.57 315.827 107.311 315.405 107.319 312.14L107.318 299.656C107.3 297.475 105.597 295.411 104.254 293.844C98.1707 286.743 89.516 282.659 80.1958 282.106C78.4952 282.005 78.0025 282.822 76.685 283.776C68.305 289.846 59.0588 289.02 50.8862 283.373C50.2555 282.937 49.299 281.964 48.482 282.027Z"/>
	<path fill="#FF6F59" transform="scale(2 2)" d="M68.8487 311.047L65.902 317.344C64.0528 321.076 64.091 321.325 62.286 317.554L58.6703 309.038L54.0045 296.114L52.6497 291.337L54.3407 292.013C61.3085 294.695 68.8967 294.536 75.7632 291.491C74.5125 297.804 71.4445 305.236 68.8487 311.047Z"/>
	<path fill="#FF6F59" transform="scale(2 2)" d="M64.605 330.663C61.2208 331.058 60.593 326.759 63.4585 325.695C66.7595 325.408 67.6368 329.701 64.605 330.663Z"/>
	<path fill="#FF6F59" transform="scale(2 2)" d="M64.0985 342.046C60.6968 341.772 60.9213 337.572 63.9315 337.082C67.1262 337.26 67.3868 341.642 64.0985 342.046Z"/>
	<path fill="#FF6F59" transform="scale(2 2)" d="M190.766 262.503L249.922 262.5L249.924 320.266C249.918 327.518 248.588 334.87 245.744 341.557C236.822 362.534 216.538 378.134 193.272 378.266L187.617 378.076C174.226 377.141 162.084 371.654 152.434 362.209C142.806 352.786 135.872 340.392 134.443 326.861C134.053 323.166 134.125 319.46 134.125 315.75L134.105 262.594C134.344 262.41 185.589 262.499 190.766 262.503ZM207.518 357.973C214.472 357.582 221.861 355.077 227.369 350.844C230.274 348.611 235.203 343.832 235.317 340.031L235.341 328.562C235.34 327.71 235.559 326.403 235.224 325.612L235.202 325.555C234.636 324.207 233.324 324.16 232.11 324.161L215.279 324.141C215.424 313.417 218.996 302.32 223.349 292.641L226.346 286.207C227.289 284.268 229.196 282.06 226.162 280.511L209.75 272.676C206.904 271.287 204.834 269.39 202.783 272.879L191.917 291.037L184.009 277.591L181.437 273.139C179.536 269.72 178.041 270.878 174.981 272.377L162.118 278.537C160.412 279.344 155.267 280.837 156.237 283.567C156.666 284.773 157.371 285.928 157.962 287.065L160.302 291.88C164.589 301.49 168.657 313.477 168.81 324.178L152.267 324.171C149.43 324.173 148.689 324.595 148.681 327.86L148.682 340.344C148.7 342.525 150.403 344.589 151.745 346.156C157.829 353.257 166.484 357.34 175.804 357.894C177.505 357.995 177.998 357.178 179.315 356.224C187.695 350.154 196.941 350.98 205.114 356.627C205.745 357.063 206.701 358.036 207.518 357.973Z"/>
	<path fill="#FF6F59" transform="scale(2 2)" d="M187.151 328.953L190.098 322.656C191.947 318.925 191.909 318.675 193.714 322.446L197.33 330.962L201.995 343.886L203.35 348.663L201.659 347.987C194.692 345.305 187.103 345.464 180.237 348.509C181.488 342.196 184.555 334.764 187.151 328.953Z"/>
	<path fill="#FF6F59" transform="scale(2 2)" d="M191.395 309.337C194.779 308.942 195.407 313.241 192.541 314.305C189.24 314.592 188.363 310.299 191.395 309.337Z"/>
	<path fill="#FF6F59" transform="scale(2 2)" d="M191.901 297.954C195.303 298.228 195.079 302.428 192.069 302.918C188.874 302.74 188.613 298.358 191.901 297.954Z"/>
	<path fill="#FF6F59" transform="scale(2 2)" d="M321.234 377.497L262.078 377.501L262.076 319.734C262.082 312.482 263.412 305.13 266.256 298.443C275.178 277.466 295.462 261.866 318.728 261.734L324.383 261.924C337.774 262.859 349.916 268.346 359.566 277.791C369.194 287.214 376.128 299.608 377.557 313.139C377.948 316.834 377.874 320.54 377.875 324.25L377.895 377.406C377.656 377.59 326.411 377.501 321.234 377.497ZM304.482 282.027C297.528 282.418 290.139 284.923 284.631 289.156C281.726 291.389 276.797 296.168 276.683 299.969L276.659 311.438C276.659 312.29 276.44 313.597 276.776 314.388L276.798 314.445C277.364 315.793 278.676 315.84 279.89 315.839L296.721 315.859C296.576 326.583 293.004 337.68 288.651 347.359L285.654 353.793C284.711 355.732 282.804 357.939 285.838 359.489L302.25 367.324C305.096 368.713 307.166 370.61 309.217 367.121L320.083 348.963L327.991 362.409L330.563 366.861C332.464 370.28 333.959 369.122 337.019 367.623L349.882 361.463C351.587 360.656 356.733 359.162 355.763 356.433C355.334 355.227 354.629 354.072 354.038 352.935L351.698 348.12C347.411 338.51 343.342 326.523 343.19 315.822L359.733 315.829C362.57 315.827 363.311 315.405 363.319 312.14L363.318 299.656C363.3 297.475 361.597 295.411 360.254 293.844C354.171 286.743 345.516 282.659 336.196 282.106C334.495 282.005 334.002 282.822 332.685 283.776C324.305 289.846 315.059 289.02 306.886 283.373C306.255 282.937 305.299 281.964 304.482 282.027Z"/>
	<path fill="#FF6F59" transform="scale(2 2)" d="M324.849 311.047L321.902 317.344C320.053 321.076 320.091 321.325 318.286 317.554L314.67 309.038L310.005 296.114L308.65 291.337L310.341 292.013C317.308 294.695 324.897 294.536 331.763 291.491C330.512 297.804 327.445 305.236 324.849 311.047Z"/>
	<path fill="#FF6F59" transform="scale(2 2)" d="M320.605 330.663C317.221 331.058 316.593 326.759 319.459 325.695C322.76 325.408 323.637 329.701 320.605 330.663Z"/>
	<path fill="#FF6F59" transform="scale(2 2)" d="M320.099 342.046C316.697 341.772 316.921 337.572 319.932 337.082C323.126 337.26 323.387 341.642 320.099 342.046Z"/>
	<path fill="#FF6F59" transform="scale(2 2)" d="M446.766 262.503L505.922 262.5L505.924 320.266C505.918 327.518 504.588 334.87 501.744 341.557C492.822 362.534 472.538 378.134 449.272 378.266L443.617 378.076C430.226 377.141 418.084 371.654 408.434 362.209C398.807 352.786 391.872 340.392 390.443 326.861C390.053 323.166 390.125 319.46 390.125 315.75L390.105 262.594C390.344 262.41 441.589 262.499 446.766 262.503ZM463.518 357.973C470.472 357.582 477.861 355.077 483.369 350.844C486.274 348.611 491.203 343.832 491.317 340.031L491.341 328.562C491.34 327.71 491.559 326.403 491.224 325.612L491.202 325.555C490.636 324.207 489.324 324.16 488.11 324.161L471.279 324.141C471.424 313.417 474.996 302.32 479.349 292.641L482.346 286.207C483.289 284.268 485.196 282.06 482.162 280.511L465.75 272.676C462.904 271.287 460.834 269.39 458.783 272.879L447.917 291.037L440.009 277.591L437.437 273.139C435.536 269.72 434.041 270.878 430.981 272.377L418.118 278.537C416.413 279.344 411.267 280.837 412.237 283.567C412.666 284.773 413.372 285.928 413.962 287.065L416.302 291.88C420.589 301.49 424.658 313.477 424.81 324.178L408.267 324.171C405.43 324.173 404.689 324.595 404.681 327.86L404.682 340.344C404.7 342.525 406.402 344.589 407.745 346.156C413.829 353.257 422.484 357.34 431.804 357.894C433.505 357.995 433.998 357.178 435.315 356.224C443.695 350.154 452.941 350.98 461.114 356.627C461.745 357.063 462.701 358.036 463.518 357.973Z"/>
	<path fill="#FF6F59" transform="scale(2 2)" d="M443.151 328.953L446.098 322.656C447.947 318.925 447.909 318.675 449.714 322.446L453.33 330.962L457.995 343.886L459.35 348.663L457.659 347.987C450.692 345.305 443.103 345.464 436.237 348.509C437.488 342.196 440.555 334.764 443.151 328.953Z"/>
	<path fill="#FF6F59" transform="scale(2 2)" d="M447.395 309.337C450.779 308.942 451.407 313.241 448.541 314.305C445.24 314.592 444.363 310.299 447.395 309.337Z"/>
	<path fill="#FF6F59" transform="scale(2 2)" d="M447.901 297.954C451.303 298.228 451.079 302.428 448.068 302.918C444.874 302.74 444.613 298.358 447.901 297.954Z"/>
	<path fill="#FF6F59" transform="scale(2 2)" d="M-1.2343 390.503L57.922 390.5L57.924 448.266C57.918 455.518 56.588 462.87 53.744 469.557C44.822 490.534 24.5385 506.134 1.2722 506.266L-4.3833 506.076C-17.7742 505.141 -29.9163 499.654 -39.5657 490.209C-49.1935 480.786 -56.1283 468.392 -57.5572 454.861C-57.9475 451.166 -57.8745 447.46 -57.875 443.75L-57.8952 390.594C-57.656 390.41 -6.4112 390.499 -1.2343 390.503ZM15.518 485.973C22.4725 485.582 29.8612 483.077 35.369 478.844C38.274 476.611 43.203 471.832 43.317 468.031L43.341 456.562C43.34 455.71 43.559 454.403 43.224 453.612L43.202 453.555C42.636 452.207 41.324 452.16 40.11 452.161L23.2788 452.141C23.424 441.417 26.9965 430.32 31.3487 420.641L34.3465 414.207C35.2887 412.268 37.196 410.06 34.162 408.511L17.75 400.676C14.9035 399.287 12.834 397.39 10.7827 400.879L-0.0828 419.037L-7.9908 405.591L-10.5627 401.139C-12.4645 397.72 -13.9595 398.878 -17.0185 400.377L-29.882 406.537C-31.5875 407.344 -36.7327 408.837 -35.763 411.567C-35.3345 412.773 -34.6285 413.928 -34.0383 415.065L-31.6977 419.88C-27.4105 429.49 -23.3425 441.477 -23.1895 452.178L-39.7327 452.171C-42.5697 452.173 -43.3113 452.595 -43.3187 455.86L-43.3183 468.344C-43.3 470.525 -41.5975 472.589 -40.2545 474.156C-34.1707 481.257 -25.516 485.34 -16.1958 485.894C-14.4952 485.995 -14.0025 485.178 -12.685 484.224C-4.305 478.154 4.9412 478.98 13.1138 484.627C13.7445 485.063 14.701 486.036 15.518 485.973Z"/>
	<path fill="#FF6F59" transform="scale(2 2)" d="M-4.8487 456.953L-1.902 450.656C-0.0528 446.925 -0.091 446.675 1.714 450.446L5.3297 458.962L9.9955 471.886L11.3503 476.663L9.6593 475.987C2.6915 473.305 -4.8967 473.464 -11.7632 476.509C-10.5125 470.196 -7.4445 462.764 -4.8487 456.953Z"/>
	<path fill="#FF6F59" transform="scale(2 2)" d="M-0.605 437.337C2.7792 436.942 3.407 441.241 0.5415 442.305C-2.7595 442.592 -3.6368 438.299 -0.605 437.337Z"/>
	<path fill="#FF6F59" transform="scale(2 2)" d="M-0.0985 425.954C3.3032 426.228 3.0787 430.428 0.0685 430.918C-3.1262 430.74 -3.3868 426.358 -0.0985 425.954Z"/>
	<path fill="#FF6F59" transform="scale(2 2)" d="M129.234 505.497L70.0779 505.501L70.0764 447.734C70.0817 440.482 71.4117 433.13 74.256 426.443C83.178 405.466 103.462 389.866 126.728 389.734L132.383 389.924C145.774 390.859 157.916 396.346 167.566 405.791C177.194 415.214 184.128 427.608 185.557 441.139C185.948 444.834 185.874 448.54 185.875 452.25L185.895 505.406C185.656 505.59 134.411 505.501 129.234 505.497ZM112.482 410.027C105.528 410.418 98.1388 412.923 92.631 417.156C89.7258 419.389 84.7969 424.168 84.6831 427.969L84.6589 439.438C84.6595 440.29 84.4405 441.597 84.7757 442.388L84.7981 442.445C85.3644 443.793 86.6761 443.84 87.8903 443.839L104.721 443.859C104.576 454.583 101.004 465.68 96.6512 475.359L93.6535 481.793C92.7112 483.732 90.8038 485.939 93.838 487.489L110.25 495.324C113.096 496.713 115.166 498.61 117.217 495.121L128.083 476.963L135.991 490.409L138.563 494.861C140.464 498.28 141.959 497.122 145.019 495.623L157.882 489.463C159.588 488.656 164.733 487.162 163.763 484.433C163.334 483.227 162.629 482.072 162.038 480.935L159.698 476.12C155.411 466.51 151.343 454.523 151.19 443.822L167.733 443.829C170.57 443.827 171.311 443.405 171.319 440.14L171.318 427.656C171.3 425.475 169.597 423.411 168.254 421.844C162.171 414.743 153.516 410.659 144.196 410.106C142.495 410.005 142.002 410.822 140.685 411.776C132.305 417.846 123.059 417.02 114.886 411.373C114.255 410.937 113.299 409.964 112.482 410.027Z"/>
	<path fill="#FF6F59" transform="scale(2 2)" d="M132.849 439.047L129.902 445.344C128.053 449.076 128.091 449.325 126.286 445.554L122.67 437.038L118.005 424.114L116.65 419.337L118.341 420.013C125.309 422.695 132.897 422.536 139.763 419.491C138.512 425.804 135.445 433.236 132.849 439.047Z"/>
	<path fill="#FF6F59" transform="scale(2 2)" d="M128.605 458.663C125.221 459.058 124.593 454.759 127.459 453.695C130.76 453.408 131.637 457.701 128.605 458.663Z"/>
	<path fill="#FF6F59" transform="scale(2 2)" d="M128.099 470.046C124.697 469.772 124.921 465.572 127.931 465.082C131.126 465.26 131.387 469.642 128.099 470.046Z"/>
	<path fill="#FF6F59" transform="scale(2 2)" d="M254.766 390.503L313.922 390.5L313.924 448.266C313.918 455.518 312.588 462.87 309.744 469.557C300.822 490.534 280.538 506.134 257.272 506.266L251.617 506.076C238.226 505.141 226.084 499.654 216.434 490.209C206.806 480.786 199.872 468.392 198.443 454.861C198.053 451.166 198.125 447.46 198.125 443.75L198.105 390.594C198.344 390.41 249.589 390.499 254.766 390.503ZM271.518 485.973C278.472 485.582 285.861 483.077 291.369 478.844C294.274 476.611 299.203 471.832 299.317 468.031L299.341 456.562C299.34 455.71 299.559 454.403 299.224 453.612L299.202 453.555C298.636 452.207 297.324 452.16 296.11 452.161L279.279 452.141C279.424 441.417 282.996 430.32 287.349 420.641L290.346 414.207C291.289 412.268 293.196 410.06 290.162 408.511L273.75 400.676C270.904 399.287 268.834 397.39 266.783 400.879L255.917 419.037L248.009 405.591L245.437 401.139C243.536 397.72 242.041 398.878 238.981 400.377L226.118 406.537C224.412 407.344 219.267 408.837 220.237 411.567C220.666 412.773 221.371 413.928 221.962 415.065L224.302 419.88C228.589 429.49 232.657 441.477 232.81 452.178L216.267 452.171C213.43 452.173 212.689 452.595 212.681 455.86L212.682 468.344C212.7 470.525 214.403 472.589 215.745 474.156C221.829 481.257 230.484 485.34 239.804 485.894C241.505 485.995 241.998 485.178 243.315 484.224C251.695 478.154 260.941 478.98 269.114 484.627C269.745 485.063 270.701 486.036 271.518 485.973Z"/>
	<path fill="#FF6F59" transform="scale(2 2)" d="M251.151 456.953L254.098 450.656C255.947 446.925 255.909 446.675 257.714 450.446L261.33 458.962L265.995 471.886L267.35 476.663L265.659 475.987C258.692 473.305 251.103 473.464 244.237 476.509C245.488 470.196 248.555 462.764 251.151 456.953Z"/>
	<path fill="#FF6F59" transform="scale(2 2)" d="M255.395 437.337C258.779 436.942 259.407 441.241 256.541 442.305C253.24 442.592 252.363 438.299 255.395 437.337Z"/>
	<path fill="#FF6F59" transform="scale(2 2)" d="M255.901 425.954C259.303 426.228 259.079 430.428 256.068 430.918C252.874 430.74 252.613 426.358 255.901 425.954Z"/>
	<path fill="#FF6F59" transform="scale(2 2)" d="M385.234 505.497L326.078 505.501L326.076 447.734C326.082 440.482 327.412 433.13 330.256 426.443C339.178 405.466 359.462 389.866 382.728 389.734L388.383 389.924C401.774 390.859 413.916 396.346 423.566 405.791C433.194 415.214 440.128 427.608 441.557 441.139C441.948 444.834 441.874 448.54 441.875 452.25L441.895 505.406C441.656 505.59 390.411 505.501 385.234 505.497ZM368.482 410.027C361.528 410.418 354.139 412.923 348.631 417.156C345.726 419.389 340.797 424.168 340.683 427.969L340.659 439.438C340.659 440.29 340.44 441.597 340.776 442.388L340.798 442.445C341.364 443.793 342.676 443.84 343.89 443.839L360.721 443.859C360.576 454.583 357.004 465.68 352.651 475.359L349.654 481.793C348.711 483.732 346.804 485.939 349.838 487.489L366.25 495.324C369.096 496.713 371.166 498.61 373.217 495.121L384.083 476.963L391.991 490.409L394.563 494.861C396.464 498.28 397.959 497.122 401.019 495.623L413.882 489.463C415.587 488.656 420.733 487.162 419.763 484.433C419.334 483.227 418.629 482.072 418.038 480.935L415.698 476.12C411.411 466.51 407.342 454.523 407.19 443.822L423.733 443.829C426.57 443.827 427.311 443.405 427.319 440.14L427.318 427.656C427.3 425.475 425.597 423.411 424.254 421.844C418.171 414.743 409.516 410.659 400.196 410.106C398.495 410.005 398.002 410.822 396.685 411.776C388.305 417.846 379.059 417.02 370.886 411.373C370.255 410.937 369.299 409.964 368.482 410.027Z"/>
	<path fill="#FF6F59" transform="scale(2 2)" d="M388.849 439.047L385.902 445.344C384.053 449.076 384.091 449.325 382.286 445.554L378.67 437.038L374.005 424.114L372.65 419.337L374.341 420.013C381.308 422.695 388.897 422.536 395.763 419.491C394.512 425.804 391.445 433.236 388.849 439.047Z"/>
	<path fill="#FF6F59" transform="scale(2 2)" d="M384.605 458.663C381.221 459.058 380.593 454.759 383.459 453.695C386.76 453.408 387.637 457.701 384.605 458.663Z"/>
	<path fill="#FF6F59" transform="scale(2 2)" d="M384.099 470.046C380.697 469.772 380.921 465.572 383.932 465.082C387.126 465.26 387.387 469.642 384.099 470.046Z"/>
	<path fill="#FF6F59" transform="scale(2 2)" d="M510.766 390.503L569.922 390.5L569.924 448.266C569.918 455.518 568.588 462.87 565.744 469.557C556.822 490.534 536.538 506.134 513.272 506.266L507.617 506.076C494.226 505.141 482.084 499.654 472.434 490.209C462.807 480.786 455.872 468.392 454.443 454.861C454.053 451.166 454.125 447.46 454.125 443.75L454.105 390.594C454.344 390.41 505.589 390.499 510.766 390.503ZM527.518 485.973C534.472 485.582 541.861 483.077 547.369 478.844C550.274 476.611 555.203 471.832 555.317 468.031L555.341 456.562C555.34 455.71 555.559 454.403 555.224 453.612L555.202 453.555C554.636 452.207 553.324 452.16 552.11 452.161L535.279 452.141C535.424 441.417 538.996 430.32 543.349 420.641L546.346 414.207C547.289 412.268 549.196 410.06 546.162 408.511L529.75 400.676C526.904 399.287 524.834 397.39 522.783 400.879L511.917 419.037L504.009 405.591L501.437 401.139C499.536 397.72 498.041 398.878 494.981 400.377L482.118 406.537C480.413 407.344 475.267 408.837 476.237 411.567C476.666 412.773 477.372 413.928 477.962 415.065L480.302 419.88C484.589 429.49 488.658 441.477 488.81 452.178L472.267 452.171C469.43 452.173 468.689 452.595 468.681 455.86L468.682 468.344C468.7 470.525 470.402 472.589 471.745 474.156C477.829 481.257 486.484 485.34 495.804 485.894C497.505 485.995 497.998 485.178 499.315 484.224C507.695 478.154 516.941 478.98 525.114 484.627C525.745 485.063 526.701 486.036 527.518 485.973Z"/>
	<path fill="#FF6F59" transform="scale(2 2)" d="M507.151 456.953L510.098 450.656C511.947 446.925 511.909 446.675 513.714 450.446L517.33 458.962L521.995 471.886L523.35 476.663L521.659 475.987C514.692 473.305 507.103 473.464 500.237 476.509C501.488 470.196 504.555 462.764 507.151 456.953Z"/>
	<path fill="#FF6F59" transform="scale(2 2)" d="M511.395 437.337C514.779 436.942 515.407 441.241 512.542 442.305C509.24 442.592 508.363 438.299 511.395 437.337Z"/>
	<path fill="#FF6F59" transform="scale(2 2)" d="M511.901 425.954C515.303 426.228 515.079 430.428 512.068 430.918C508.874 430.74 508.613 426.358 511.901 425.954Z"/>
</svg>
