<?xml version="1.0" encoding="utf-8" ?>
<svg xmlns="http://www.w3.org/2000/svg" xmlns:xlink="http://www.w3.org/1999/xlink" width="1024" height="1024">
	<path fill="#FF6F59" transform="scale(2 2)" d="M0 0L0 512L512 512L512 0L0 0Z"/>
	<path fill="#254441" transform="scale(2 2)" d="M258.295 301.409L148.301 301.415L148.298 194.005C148.308 180.521 150.781 166.852 156.07 154.417C172.659 115.412 210.374 86.4079 253.634 86.1624L264.15 86.5158C289.049 88.2533 311.626 98.4558 329.568 116.017C347.469 133.539 360.363 156.584 363.021 181.742C363.746 188.613 363.61 195.505 363.611 202.402L363.649 301.24C363.204 301.581 267.921 301.416 258.295 301.409ZM227.146 123.894C214.215 124.62 200.477 129.28 190.236 137.15C184.834 141.302 175.669 150.187 175.458 157.254L175.413 178.58C175.414 180.164 175.007 182.594 175.63 184.065L175.672 184.171C176.724 186.677 179.163 186.765 181.421 186.764L212.716 186.8C212.446 206.741 205.803 227.373 197.711 245.37L192.137 257.333C190.385 260.94 186.838 265.044 192.48 267.925L222.996 282.493C228.289 285.076 232.137 288.603 235.951 282.116L256.154 248.353L270.858 273.353L275.64 281.633C279.176 287.989 281.956 285.837 287.644 283.048L311.562 271.595C314.733 270.096 324.3 267.318 322.497 262.244C321.7 260.001 320.387 257.852 319.29 255.738L314.938 246.786C306.966 228.917 299.402 206.629 299.118 186.731L329.878 186.745C335.153 186.742 336.532 185.957 336.546 179.885L336.545 156.673C336.511 152.618 333.345 148.781 330.848 145.866C319.536 132.663 303.444 125.07 286.114 124.042C282.952 123.854 282.036 125.372 279.586 127.146C264.005 138.432 246.812 136.896 231.617 126.396C230.444 125.586 228.665 123.777 227.146 123.894Z"/>
	<path fill="#254441" transform="scale(2 2)" d="M265.016 177.853L259.537 189.561C256.098 196.5 256.169 196.963 252.813 189.952L246.09 174.118L237.415 150.087L234.896 141.204L238.04 142.462C250.995 147.449 265.105 147.152 277.872 141.492C275.547 153.229 269.842 167.048 265.016 177.853Z"/>
	<path fill="#254441" transform="scale(2 2)" d="M257.125 214.327C250.832 215.061 249.665 207.067 254.993 205.088C261.131 204.555 262.762 212.538 257.125 214.327Z"/>
	<path fill="#254441" transform="scale(2 2)" d="M256.183 235.492C249.858 234.983 250.275 227.173 255.873 226.262C261.813 226.593 262.297 234.741 256.183 235.492Z"/>
	<path fill="#254441" transform="scale(2 2)" d="M65 410.503L65 366.781L81.895 366.781L81.895 371.153L71.0995 371.153L71.0995 385.727L79.466 385.727L79.466 390.045L71.0995 390.045L71.0995 410.503L65 410.503ZM89.2899 410.935C88.0664 410.935 86.9869 410.584 86.0513 409.882C85.1157 409.181 84.378 408.281 83.8382 407.183C83.2984 406.086 83.0285 404.925 83.0285 403.702C83.0285 401.759 83.3524 400.121 84.0001 398.79C84.6479 397.458 85.5385 396.334 86.672 395.416C87.8056 394.499 89.119 393.698 90.6124 393.014C92.1058 392.33 93.6801 391.665 95.3354 391.017L95.3354 388.804C95.3354 387.544 95.2635 386.501 95.1195 385.673C94.9756 384.846 94.6787 384.225 94.2289 383.811C93.7791 383.397 93.1044 383.19 92.2047 383.19C91.4131 383.19 90.7743 383.37 90.2885 383.73C89.8027 384.09 89.4519 384.603 89.236 385.268C89.0201 385.934 88.9121 386.717 88.9121 387.616L88.9121 389.182L83.1905 388.966C83.2624 385.511 84.0541 382.965 85.5655 381.328C87.0769 379.691 89.4159 378.872 92.5826 378.872C95.6773 378.872 97.8724 379.718 99.1679 381.409C100.463 383.1 101.111 385.547 101.111 388.75L101.111 403C101.111 403.972 101.138 404.907 101.192 405.807C101.246 406.707 101.318 407.543 101.408 408.317C101.498 409.091 101.579 409.819 101.651 410.503L96.361 410.503C96.2531 409.927 96.1181 409.198 95.9562 408.317C95.7943 407.435 95.6773 406.635 95.6053 405.915C95.2455 407.138 94.5528 408.281 93.5272 409.342C92.5016 410.404 91.0892 410.935 89.2899 410.935ZM91.557 405.969C92.1328 405.969 92.6726 405.807 93.1763 405.483C93.6801 405.159 94.13 404.79 94.5258 404.376C94.9216 403.963 95.1915 403.63 95.3354 403.378L95.3354 394.526C94.4358 395.029 93.5902 395.533 92.7985 396.037C92.0068 396.541 91.3141 397.072 90.7204 397.629C90.1266 398.187 89.6588 398.817 89.3169 399.519C88.9751 400.22 88.8042 401.021 88.8042 401.921C88.8042 403.18 89.038 404.17 89.5059 404.889C89.9737 405.609 90.6574 405.969 91.557 405.969ZM110.557 410.503L104.404 379.304L110.233 379.304L114.066 404.403L117.952 379.304L123.566 379.304L117.628 410.503L110.557 410.503ZM135.873 410.935C133.569 410.935 131.753 410.467 130.421 409.531C129.089 408.596 128.145 407.264 127.587 405.537C127.03 403.81 126.75 401.777 126.75 399.438L126.75 390.369C126.75 388.03 127.03 385.997 127.587 384.27C128.145 382.543 129.089 381.211 130.421 380.275C131.753 379.34 133.569 378.872 135.873 378.872C138.176 378.872 139.984 379.34 141.297 380.275C142.611 381.211 143.547 382.543 144.104 384.27C144.662 385.997 144.941 388.03 144.941 390.369L144.941 399.438C144.941 401.777 144.662 403.81 144.104 405.537C143.547 407.264 142.611 408.596 141.297 409.531C139.984 410.467 138.176 410.935 135.873 410.935ZM135.873 406.671C136.988 406.671 137.771 406.347 138.221 405.699C138.67 405.051 138.94 404.197 139.03 403.135C139.121 402.073 139.165 400.967 139.165 399.815L139.165 390.045C139.165 388.858 139.121 387.742 139.03 386.699C138.94 385.655 138.67 384.801 138.221 384.135C137.771 383.469 136.988 383.136 135.873 383.136C134.757 383.136 133.966 383.469 133.498 384.135C133.03 384.801 132.751 385.655 132.661 386.699C132.571 387.742 132.526 388.858 132.526 390.045L132.526 399.815C132.526 400.967 132.571 402.073 132.661 403.135C132.751 404.197 133.03 405.051 133.498 405.699C133.966 406.347 134.757 406.671 135.873 406.671ZM150.393 410.503L150.393 379.304L156.168 379.304L156.168 383.73C157.32 381.823 158.472 380.545 159.623 379.898C160.774 379.25 161.926 378.926 163.077 378.926C163.222 378.926 163.356 378.926 163.482 378.926C163.608 378.926 163.779 378.944 163.995 378.98L163.995 385.349C163.563 385.169 163.068 385.016 162.511 384.891C161.953 384.765 161.386 384.702 160.81 384.702C159.911 384.702 159.092 384.909 158.354 385.322C157.616 385.736 156.888 386.537 156.168 387.724L156.168 410.503L150.393 410.503ZM167.935 410.503L167.935 379.304L173.711 379.304L173.711 410.503L167.935 410.503ZM167.935 374.662L167.935 368.616L173.711 368.616L173.711 374.662L167.935 374.662ZM188.231 410.935C186.612 410.935 185.307 410.629 184.318 410.017C183.328 409.405 182.608 408.542 182.159 407.426C181.709 406.311 181.484 404.997 181.484 403.486L181.484 383.136L178.191 383.136L178.191 379.304L181.484 379.304L181.484 370.182L187.259 370.182L187.259 379.304L192.279 379.304L192.279 383.136L187.259 383.136L187.259 403.108C187.259 404.332 187.458 405.204 187.853 405.726C188.249 406.248 189.005 406.509 190.12 406.509C190.408 406.509 190.741 406.491 191.119 406.455C191.497 406.419 191.865 406.383 192.225 406.347L192.225 410.611C191.506 410.719 190.84 410.8 190.228 410.854C189.617 410.908 188.951 410.935 188.231 410.935ZM205.18 410.935C202.733 410.935 200.844 410.458 199.512 409.504C198.181 408.551 197.254 407.147 196.732 405.294C196.211 403.441 195.95 401.165 195.95 398.466L195.95 391.341C195.95 388.57 196.22 386.267 196.759 384.432C197.299 382.597 198.244 381.211 199.593 380.275C200.943 379.34 202.805 378.872 205.18 378.872C207.807 378.872 209.741 379.412 210.983 380.491C212.224 381.571 213.043 383.127 213.439 385.16C213.834 387.194 214.032 389.632 214.032 392.474L214.032 395.011L201.725 395.011L201.725 401.273C201.725 402.532 201.843 403.558 202.076 404.35C202.31 405.141 202.688 405.726 203.21 406.104C203.732 406.482 204.407 406.671 205.234 406.671C206.098 406.671 206.755 406.464 207.204 406.05C207.654 405.636 207.96 405.042 208.122 404.269C208.284 403.495 208.365 402.586 208.365 401.543L208.365 399.653L213.978 399.653L213.978 400.841C213.978 403.972 213.313 406.437 211.981 408.236C210.65 410.035 208.382 410.935 205.18 410.935ZM201.725 391.881L208.365 391.881L208.365 389.074C208.365 387.778 208.293 386.69 208.149 385.808C208.005 384.927 207.708 384.261 207.258 383.811C206.809 383.361 206.098 383.136 205.126 383.136C204.191 383.136 203.48 383.352 202.994 383.784C202.508 384.216 202.175 384.945 201.995 385.97C201.816 386.996 201.725 388.408 201.725 390.207L201.725 391.881ZM231.737 410.449L231.737 366.727L237.513 366.727L237.513 392.798L245.933 379.304L251.979 379.304L244.638 391.503L251.763 410.503L245.987 410.503L240.158 394.526L237.513 398.52L237.513 410.449L231.737 410.449ZM255.163 410.503L255.163 379.304L260.939 379.304L260.939 410.503L255.163 410.503ZM255.163 374.662L255.163 368.616L260.939 368.616L260.939 374.662L255.163 374.662ZM267.146 410.503L267.146 379.304L272.922 379.304L272.922 382.381C273.965 381.409 275.117 380.581 276.377 379.898C277.636 379.214 279.021 378.872 280.533 378.872C281.792 378.872 282.755 379.196 283.421 379.844C284.086 380.491 284.554 381.301 284.824 382.273C285.094 383.244 285.229 384.234 285.229 385.241L285.229 410.503L279.453 410.503L279.453 386.915C279.453 385.799 279.291 384.936 278.967 384.324C278.644 383.712 277.978 383.406 276.97 383.406C276.323 383.406 275.648 383.595 274.946 383.973C274.244 384.351 273.57 384.81 272.922 385.349L272.922 410.503L267.146 410.503ZM299.101 420.273C297.194 420.273 295.475 420.066 293.946 419.652C292.417 419.238 291.211 418.6 290.33 417.736C289.448 416.872 289.007 415.739 289.007 414.335C289.007 413.256 289.259 412.311 289.763 411.502C290.267 410.692 290.914 409.999 291.706 409.423C292.498 408.848 293.326 408.398 294.189 408.074L296.888 408.452C296.42 408.884 295.97 409.324 295.539 409.774C295.107 410.224 294.747 410.692 294.459 411.178C294.171 411.663 294.027 412.194 294.027 412.77C294.027 413.706 294.432 414.407 295.242 414.875C296.051 415.343 297.5 415.577 299.587 415.577C301.638 415.577 303.159 415.334 304.148 414.848C305.137 414.362 305.632 413.598 305.632 412.554C305.632 411.906 305.507 411.376 305.255 410.962C305.003 410.548 304.571 410.215 303.959 409.963C303.348 409.711 302.466 409.531 301.314 409.423L294.513 408.56C293.11 408.38 292.066 407.93 291.382 407.21C290.698 406.491 290.357 405.699 290.357 404.835C290.357 403.54 290.725 402.442 291.463 401.543C292.201 400.643 293.2 399.635 294.459 398.52L296.402 400.031C296.186 400.319 295.916 400.724 295.593 401.246C295.269 401.768 295.107 402.28 295.107 402.784C295.107 403.18 295.314 403.504 295.728 403.756C296.142 404.008 296.798 404.17 297.698 404.242L302.934 404.727C305.38 404.943 307.198 405.681 308.385 406.94C309.573 408.2 310.167 409.999 310.167 412.338C310.167 414.065 309.762 415.523 308.952 416.71C308.142 417.898 306.928 418.789 305.309 419.382C303.689 419.976 301.62 420.273 299.101 420.273ZM299.317 400.895C297.194 400.895 295.467 400.427 294.135 399.492C292.804 398.556 291.823 397.26 291.193 395.605C290.563 393.95 290.249 392.061 290.249 389.937C290.249 387.526 290.59 385.502 291.274 383.865C291.958 382.228 292.975 380.986 294.324 380.141C295.674 379.295 297.338 378.872 299.317 378.872C301.368 378.872 303.042 379.385 304.337 380.41C305.632 381.436 306.586 382.794 307.198 384.486C307.809 386.177 308.115 388.048 308.115 390.099C308.115 392.223 307.836 394.103 307.279 395.74C306.721 397.377 305.804 398.646 304.526 399.545C303.248 400.445 301.512 400.895 299.317 400.895ZM299.317 396.739C300.109 396.739 300.738 396.586 301.206 396.28C301.674 395.974 302.025 395.533 302.259 394.957C302.493 394.382 302.654 393.671 302.745 392.825C302.835 391.98 302.88 391.017 302.88 389.937C302.88 388.858 302.843 387.886 302.772 387.023C302.7 386.159 302.538 385.43 302.286 384.837C302.034 384.243 301.674 383.784 301.206 383.46C300.738 383.136 300.127 382.974 299.371 382.974C298.579 382.974 297.941 383.127 297.455 383.433C296.969 383.739 296.591 384.189 296.321 384.783C296.051 385.376 295.872 386.105 295.782 386.969C295.691 387.832 295.647 388.822 295.647 389.937C295.647 390.909 295.691 391.809 295.782 392.636C295.872 393.464 296.042 394.184 296.294 394.795C296.546 395.407 296.915 395.884 297.401 396.226C297.887 396.568 298.525 396.739 299.317 396.739ZM307.036 384.54L305.686 382.381C305.974 381.877 306.622 381.247 307.63 380.491C308.637 379.736 309.717 379.106 310.868 378.602L312.38 382.381C311.876 382.489 311.201 382.686 310.355 382.974C309.51 383.262 308.745 383.559 308.061 383.865C307.378 384.171 307.036 384.396 307.036 384.54ZM321.88 410.935C319.325 410.935 317.274 410.134 315.726 408.533C314.179 406.931 313.297 404.817 313.081 402.19L317.885 400.733C318.173 402.712 318.659 404.197 319.343 405.186C320.027 406.176 321.034 406.671 322.366 406.671C323.409 406.671 324.201 406.374 324.741 405.78C325.28 405.186 325.55 404.386 325.55 403.378C325.55 402.478 325.352 401.669 324.956 400.949C324.561 400.229 323.913 399.492 323.013 398.736L317.669 394.148C316.59 393.212 315.681 392.169 314.944 391.017C314.206 389.866 313.837 388.372 313.837 386.537C313.837 384.882 314.17 383.487 314.836 382.354C315.501 381.22 316.437 380.356 317.642 379.763C318.848 379.169 320.26 378.872 321.88 378.872C324.471 378.872 326.45 379.673 327.817 381.274C329.185 382.875 329.976 384.81 330.192 387.077L326.09 388.534C325.946 387.454 325.73 386.51 325.442 385.7C325.155 384.891 324.741 384.261 324.201 383.811C323.661 383.361 322.959 383.136 322.096 383.136C321.16 383.136 320.413 383.451 319.856 384.081C319.298 384.711 319.019 385.457 319.019 386.321C319.019 386.861 319.136 387.392 319.37 387.913C319.603 388.435 320.008 388.948 320.584 389.452L326.09 394.526C326.846 395.209 327.557 395.947 328.222 396.739C328.888 397.53 329.437 398.43 329.868 399.438C330.3 400.445 330.516 401.615 330.516 402.946C330.516 404.709 330.156 406.185 329.437 407.372C328.717 408.56 327.709 409.45 326.414 410.044C325.118 410.638 323.607 410.935 321.88 410.935ZM354.428 410.935C351.801 410.935 349.84 409.972 348.545 408.047C347.249 406.122 346.601 402.856 346.601 398.25L346.601 392.205C346.601 389.83 346.8 387.625 347.195 385.592C347.591 383.559 348.338 381.931 349.435 380.707C350.533 379.484 352.143 378.872 354.266 378.872C355.31 378.872 356.263 379.106 357.127 379.574C357.991 380.042 358.764 380.617 359.448 381.301L359.448 366.781L365.224 366.781L365.224 410.503L359.448 410.503L359.448 408.506C358.764 409.225 358.018 409.81 357.208 410.26C356.398 410.71 355.472 410.935 354.428 410.935ZM355.886 406.401C356.425 406.401 357.001 406.302 357.613 406.104C358.224 405.906 358.837 405.609 359.448 405.213L359.448 384.756C358.945 384.396 358.386 384.081 357.775 383.811C357.163 383.541 356.497 383.406 355.778 383.406C354.446 383.406 353.547 384.045 353.079 385.322C352.611 386.6 352.377 388.138 352.377 389.937L352.377 398.736C352.377 400.175 352.458 401.48 352.62 402.649C352.782 403.819 353.115 404.736 353.619 405.402C354.122 406.068 354.878 406.401 355.886 406.401ZM371.215 410.503L371.215 379.304L376.991 379.304L376.991 383.73C378.142 381.823 379.294 380.545 380.445 379.898C381.597 379.25 382.749 378.926 383.9 378.926C384.044 378.926 384.179 378.926 384.305 378.926C384.431 378.926 384.602 378.944 384.818 378.98L384.818 385.349C384.386 385.169 383.891 385.016 383.333 384.891C382.776 384.765 382.209 384.702 381.633 384.702C380.733 384.702 379.915 384.909 379.177 385.322C378.439 385.736 377.71 386.537 376.991 387.724L376.991 410.503L371.215 410.503ZM396.855 410.935C394.408 410.935 392.519 410.458 391.187 409.504C389.855 408.551 388.929 407.147 388.407 405.294C387.885 403.441 387.625 401.165 387.625 398.466L387.625 391.341C387.625 388.57 387.894 386.267 388.434 384.432C388.974 382.597 389.919 381.211 391.268 380.275C392.617 379.34 394.48 378.872 396.855 378.872C399.482 378.872 401.416 379.412 402.657 380.491C403.899 381.571 404.718 383.127 405.113 385.16C405.509 387.194 405.707 389.632 405.707 392.474L405.707 395.011L393.4 395.011L393.4 401.273C393.4 402.532 393.517 403.558 393.751 404.35C393.985 405.141 394.363 405.726 394.885 406.104C395.406 406.482 396.081 406.671 396.909 406.671C397.772 406.671 398.429 406.464 398.879 406.05C399.328 405.636 399.635 405.042 399.796 404.269C399.958 403.495 400.039 402.586 400.039 401.543L400.039 399.653L405.653 399.653L405.653 400.841C405.653 403.972 404.988 406.437 403.656 408.236C402.324 410.035 400.057 410.935 396.855 410.935ZM393.4 391.881L400.039 391.881L400.039 389.074C400.039 387.778 399.968 386.69 399.823 385.808C399.679 384.927 399.382 384.261 398.933 383.811C398.483 383.361 397.772 383.136 396.801 383.136C395.865 383.136 395.154 383.352 394.669 383.784C394.183 384.216 393.85 384.945 393.67 385.97C393.49 386.996 393.4 388.408 393.4 390.207L393.4 391.881ZM418.176 410.935C415.621 410.935 413.57 410.134 412.022 408.533C410.475 406.931 409.593 404.817 409.378 402.19L414.182 400.733C414.469 402.712 414.955 404.197 415.639 405.186C416.323 406.176 417.33 406.671 418.662 406.671C419.705 406.671 420.497 406.374 421.037 405.78C421.576 405.186 421.846 404.386 421.846 403.378C421.846 402.478 421.648 401.669 421.253 400.949C420.857 400.229 420.209 399.492 419.309 398.736L413.966 394.148C412.886 393.212 411.978 392.169 411.24 391.017C410.502 389.866 410.133 388.372 410.133 386.537C410.133 384.882 410.466 383.487 411.132 382.354C411.797 381.22 412.733 380.356 413.939 379.763C415.144 379.169 416.557 378.872 418.176 378.872C420.767 378.872 422.746 379.673 424.113 381.274C425.481 382.875 426.273 384.81 426.488 387.077L422.386 388.534C422.242 387.454 422.026 386.51 421.738 385.7C421.451 384.891 421.037 384.261 420.497 383.811C419.957 383.361 419.255 383.136 418.392 383.136C417.456 383.136 416.709 383.451 416.152 384.081C415.594 384.711 415.315 385.457 415.315 386.321C415.315 386.861 415.432 387.392 415.666 387.913C415.9 388.435 416.304 388.948 416.88 389.452L422.386 394.526C423.142 395.209 423.853 395.947 424.518 396.739C425.184 397.53 425.733 398.43 426.165 399.438C426.596 400.445 426.812 401.615 426.812 402.946C426.812 404.709 426.452 406.185 425.733 407.372C425.013 408.56 424.005 409.45 422.71 410.044C421.415 410.638 419.903 410.935 418.176 410.935ZM438.364 410.935C435.809 410.935 433.758 410.134 432.21 408.533C430.663 406.931 429.781 404.817 429.565 402.19L434.369 400.733C434.657 402.712 435.143 404.197 435.827 405.186C436.51 406.176 437.518 406.671 438.849 406.671C439.893 406.671 440.685 406.374 441.224 405.78C441.764 405.186 442.034 404.386 442.034 403.378C442.034 402.478 441.836 401.669 441.44 400.949C441.045 400.229 440.397 399.492 439.497 398.736L434.153 394.148C433.074 393.212 432.165 392.169 431.427 391.017C430.69 389.866 430.321 388.372 430.321 386.537C430.321 384.882 430.654 383.487 431.319 382.354C431.985 381.22 432.921 380.356 434.126 379.763C435.332 379.169 436.744 378.872 438.364 378.872C440.954 378.872 442.934 379.673 444.301 381.274C445.668 382.875 446.46 384.81 446.676 387.077L442.574 388.534C442.43 387.454 442.214 386.51 441.926 385.7C441.638 384.891 441.224 384.261 440.685 383.811C440.145 383.361 439.443 383.136 438.579 383.136C437.644 383.136 436.897 383.451 436.339 384.081C435.782 384.711 435.503 385.457 435.503 386.321C435.503 386.861 435.62 387.392 435.854 387.913C436.087 388.435 436.492 388.948 437.068 389.452L442.574 394.526C443.329 395.209 444.04 395.947 444.706 396.739C445.371 397.53 445.92 398.43 446.352 399.438C446.784 400.445 447 401.615 447 402.946C447 404.709 446.64 406.185 445.92 407.372C445.201 408.56 444.193 409.45 442.898 410.044C441.602 410.638 440.091 410.935 438.364 410.935Z"/>
</svg>
